<?xml version="1.0" standalone="no"?>
<!DOCTYPE svg PUBLIC "-//W3C//DTD SVG 20010904//EN"
 "http://www.w3.org/TR/2001/REC-SVG-20010904/DTD/svg10.dtd">
<svg version="1.0" xmlns="http://www.w3.org/2000/svg"
 width="500.000000pt" height="324.000000pt" viewBox="0 0 500.000000 324.000000"
 preserveAspectRatio="xMidYMid meet">

<g transform="translate(0.000000,324.000000) scale(0.100000,-0.100000)"
fill="#000000" stroke="none">
<path d="M3812 3115 c-57 -29 -85 -61 -129 -145 l-28 -55 -135 -17 c-166 -21
-383 -62 -470 -88 -36 -11 -84 -35 -107 -53 -31 -25 -59 -37 -113 -47 -82 -16
-101 -9 -111 37 -15 74 -68 123 -134 123 -34 0 -426 -98 -486 -121 -14 -6 -48
-32 -74 -59 l-49 -50 -111 6 c-92 5 -123 2 -188 -15 -100 -26 -189 -69 -262
-126 -32 -25 -64 -45 -70 -45 -7 0 -24 9 -38 20 -34 27 -101 50 -146 50 -45 0
-51 5 -84 61 -29 52 -83 103 -132 126 -21 10 -40 31 -53 59 -52 107 -167 184
-273 184 -86 0 -133 -23 -180 -86 -33 -45 -45 -54 -70 -54 -69 0 -131 -59
-150 -145 -17 -76 0 -166 52 -271 l40 -82 -46 -223 c-39 -187 -46 -236 -42
-297 l6 -73 -39 -36 c-51 -46 -64 -88 -63 -198 1 -139 48 -257 140 -356 54
-58 55 -85 4 -120 -51 -36 -74 -88 -74 -169 2 -212 121 -428 263 -475 67 -22
169 -16 269 16 83 27 95 21 105 -47 12 -92 64 -176 131 -212 40 -22 202 -21
263 1 63 24 130 74 165 124 29 40 103 93 132 93 6 0 31 -23 55 -51 125 -149
283 -112 529 126 97 93 186 203 241 300 29 51 35 56 64 53 l31 -3 5 -190 c6
-240 21 -277 119 -305 44 -12 330 60 386 98 89 62 135 159 135 288 0 83 9 98
67 109 54 9 116 48 153 95 36 46 67 52 96 19 29 -33 94 -59 149 -59 97 0 286
102 401 215 58 58 80 89 124 179 l53 109 77 -6 c103 -8 254 -39 395 -82 63
-19 132 -35 153 -35 49 0 86 32 101 86 14 49 14 284 1 353 -20 109 -102 231
-180 271 -21 11 -87 34 -146 51 -60 17 -115 36 -121 42 -23 18 -14 39 46 103
100 106 157 257 149 390 -8 118 -78 242 -169 300 -31 19 -40 34 -54 81 -22 78
-56 133 -110 181 -57 50 -96 60 -270 67 -137 6 -141 6 -193 -20z m174 -222
c15 -15 16 -37 11 -213 -7 -254 -23 -314 -107 -398 -56 -56 -89 -57 -125 -5
-14 21 -25 43 -25 50 0 7 16 30 35 52 62 68 68 95 74 307 5 141 10 195 20 208
18 22 94 22 117 -1z m196 -10 c16 -15 18 -36 18 -237 l1 -221 25 40 c13 22 31
63 40 92 21 71 33 80 88 59 64 -24 73 -52 45 -141 -28 -93 -58 -143 -119 -199
-57 -50 -91 -61 -160 -49 -33 6 -48 15 -57 33 -16 31 -18 575 -3 614 8 23 15
26 56 26 30 0 54 -6 66 -17z m-3475 -180 c23 -25 25 -34 19 -84 -3 -31 -8 -63
-11 -71 -7 -17 -3 -18 119 -34 59 -8 86 -32 86 -76 0 -67 -28 -79 -147 -64
l-91 11 -69 -350 c-69 -354 -78 -385 -119 -385 -29 0 -74 56 -74 92 0 18 27
170 60 338 33 167 60 312 60 321 0 11 -12 19 -37 24 -50 9 -93 54 -93 98 0 58
25 66 136 42 l30 -7 13 69 c7 37 20 76 28 85 23 26 60 22 90 -9z m2928 -45
c34 -30 42 -84 21 -130 -22 -47 -41 -54 -176 -73 -63 -9 -182 -29 -265 -46
-82 -16 -163 -29 -179 -29 -44 0 -66 25 -66 77 0 54 22 98 58 117 31 16 241
58 422 85 161 25 155 25 185 -1z m-1107 -110 l-3 -82 -185 -48 c-102 -26 -191
-48 -198 -48 -10 0 -12 20 -10 81 l3 82 175 47 c96 26 185 48 198 49 22 1 23
-1 20 -81z m322 -323 c-35 -179 -164 -336 -345 -420 -60 -28 -289 -95 -324
-95 -8 0 -11 23 -9 82 l3 81 128 34 c162 42 230 76 295 147 72 79 94 143 100
283 l4 111 77 19 76 19 3 -100 c2 -56 -2 -128 -8 -161z m-952 164 c191 -92
186 -462 -9 -643 -89 -83 -125 -76 -144 28 -7 32 -3 39 44 89 27 29 59 73 70
98 24 52 28 153 7 203 -14 34 -63 79 -76 71 -4 -2 -10 -33 -14 -67 -10 -102
-54 -267 -91 -344 -76 -158 -198 -198 -279 -91 -43 56 -58 113 -58 217 1 238
129 407 346 456 74 16 146 10 204 -17z m572 -114 l0 -84 -37 -10 c-253 -66
-350 -91 -356 -91 -4 0 -7 38 -7 83 l0 84 193 50 c105 28 195 51 200 52 4 1 7
-37 7 -84z m-1277 8 c32 -29 21 -77 -40 -183 -65 -112 -94 -135 -137 -107 -35
23 -41 62 -16 109 12 22 18 43 15 46 -3 4 -37 8 -76 10 -60 4 -72 8 -89 29
-27 35 -26 77 3 100 21 16 40 18 173 15 118 -3 153 -7 167 -19z m2763 -298 c3
-14 4 -139 1 -278 -4 -229 -6 -258 -27 -315 -48 -134 -127 -221 -273 -298 -82
-43 -100 -40 -145 22 -50 68 -44 81 68 136 198 97 239 193 240 560 0 91 3 173
6 182 5 12 21 16 65 16 54 0 59 -2 65 -25z m-439 -280 c2 -148 -1 -276 -6
-284 -6 -9 -30 -14 -67 -15 l-59 -1 -3 270 c-3 268 -2 270 19 288 16 13 36 17
68 15 l46 -3 2 -270z m-2593 204 c23 -18 26 -28 26 -79 0 -51 3 -61 26 -79 23
-18 41 -21 122 -21 75 0 99 -4 114 -17 33 -30 16 -101 -29 -122 -31 -14 -152
-14 -210 1 -59 14 -127 78 -142 133 -18 67 -14 148 10 179 25 31 47 33 83 5z
m3381 -115 c89 -15 285 -62 338 -83 l27 -11 0 -124 0 -124 -77 24 c-109 34
-281 71 -390 85 l-93 12 0 124 0 124 53 -6 c28 -4 93 -13 142 -21z m-1415
-271 c0 -134 12 -183 52 -207 15 -9 123 6 220 32 17 4 18 -7 18 -166 0 -154
-2 -171 -17 -176 -10 -3 -58 -14 -108 -26 -144 -33 -158 -55 -163 -262 l-4
-146 -119 -30 -119 -30 0 542 0 541 98 27 c155 41 142 50 142 -99z m-865 -28
c16 -15 25 -36 25 -55 0 -16 3 -30 8 -30 4 0 41 9 82 20 105 27 155 26 185 -5
22 -21 25 -33 25 -97 -1 -185 -91 -433 -222 -610 -80 -109 -255 -257 -324
-274 -53 -13 -101 50 -89 115 8 40 41 75 139 145 81 58 173 170 220 269 37 76
84 233 73 243 -3 4 -47 -4 -96 -16 l-90 -22 -37 -67 c-56 -102 -140 -210 -180
-229 -32 -15 -38 -15 -62 -1 -36 20 -55 62 -48 104 4 18 33 68 66 110 69 90
131 207 160 305 33 110 108 153 165 95z m-1565 -39 c148 -42 249 -60 408 -75
57 -5 110 -15 119 -22 13 -11 14 -35 10 -149 -5 -155 -22 -229 -77 -346 -53
-110 -113 -175 -205 -220 -64 -31 -86 -37 -165 -42 -84 -4 -93 -3 -114 17 -30
28 -55 143 -37 165 6 8 42 17 79 21 181 19 280 113 328 308 9 37 15 69 13 71
-2 2 -62 14 -133 26 -142 24 -288 63 -324 86 -28 19 -42 53 -42 105 0 49 15
79 38 79 10 0 56 -11 102 -24z m1050 -648 c0 -118 -4 -150 -19 -183 -31 -68
-86 -105 -156 -105 -32 0 -35 -3 -46 -42 -25 -96 -72 -128 -184 -128 l-75 0 0
94 0 95 53 3 52 3 3 76 3 76 61 7 c33 3 77 6 97 6 35 0 61 14 61 32 0 5 -74 5
-165 2 l-165 -7 0 90 0 90 197 12 c109 7 199 14 202 17 2 2 22 4 43 4 l38 0 0
-142z"/>
<path d="M1570 2163 c-72 -72 -100 -187 -66 -268 20 -47 40 -37 65 29 29 78
69 286 55 286 -4 0 -28 -21 -54 -47z"/>
</g>
</svg>
